<?xml version="1.0" encoding="utf-8"?>
<!-- Generator: Adobe Illustrator 24.1.2, SVG Export Plug-In . SVG Version: 6.00 Build 0)  -->
<svg version="1.1" id="Camada_1" xmlns="http://www.w3.org/2000/svg" xmlns:xlink="http://www.w3.org/1999/xlink" x="0px" y="0px"
	 viewBox="0 0 100 100" style="enable-background:new 0 0 100 100;" xml:space="preserve">
<style type="text/css">
	.st0{fill:none;stroke:url(#SVGID_1_);stroke-width:0.3871;stroke-miterlimit:10;}
	.st1{fill:none;stroke:url(#SVGID_2_);stroke-width:0.3741;stroke-miterlimit:10;}
	.st2{fill:none;stroke:url(#SVGID_3_);stroke-width:0.3616;stroke-miterlimit:10;}
	.st3{fill:none;stroke:url(#SVGID_4_);stroke-width:0.3495;stroke-miterlimit:10;}
	.st4{fill:none;stroke:url(#SVGID_5_);stroke-width:0.3377;stroke-miterlimit:10;}
	.st5{fill:none;stroke:url(#SVGID_6_);stroke-width:0.3264;stroke-miterlimit:10;}
	.st6{fill:none;stroke:url(#SVGID_7_);stroke-width:0.3871;stroke-miterlimit:10;}
	.st7{fill:none;stroke:url(#SVGID_8_);stroke-width:0.3741;stroke-miterlimit:10;}
	.st8{fill:none;stroke:url(#SVGID_9_);stroke-width:0.3616;stroke-miterlimit:10;}
	.st9{fill:none;stroke:url(#SVGID_10_);stroke-width:0.3495;stroke-miterlimit:10;}
	.st10{fill:none;stroke:url(#SVGID_11_);stroke-width:0.3377;stroke-miterlimit:10;}
	.st11{fill:none;stroke:url(#SVGID_12_);stroke-width:0.3264;stroke-miterlimit:10;}
	.st12{fill:none;stroke:url(#SVGID_13_);stroke-width:0.3871;stroke-miterlimit:10;}
	.st13{fill:none;stroke:url(#SVGID_14_);stroke-width:0.3741;stroke-miterlimit:10;}
	.st14{fill:none;stroke:url(#SVGID_15_);stroke-width:0.3616;stroke-miterlimit:10;}
	.st15{fill:none;stroke:url(#SVGID_16_);stroke-width:0.3495;stroke-miterlimit:10;}
	.st16{fill:none;stroke:url(#SVGID_17_);stroke-width:0.3377;stroke-miterlimit:10;}
	.st17{fill:none;stroke:url(#SVGID_18_);stroke-width:0.3264;stroke-miterlimit:10;}
</style>
<g>
	<g>
		<linearGradient id="SVGID_1_" gradientUnits="userSpaceOnUse" x1="14.8719" y1="42.9665" x2="79.9611" y2="42.9665">
			<stop  offset="0" style="stop-color:#FFFFFF"/>
			<stop  offset="1" style="stop-color:#000000"/>
		</linearGradient>
		<path class="st0" d="M15.05,52.43c4.84,9.84,17,16.83,31.24,16.83c14.24,0,26.4-6.98,31.24-16.83c1.44-2.94,2.24-6.13,2.24-9.47
			c0-14.52-14.99-26.29-33.48-26.29"/>
	</g>
	<g>
		<linearGradient id="SVGID_2_" gradientUnits="userSpaceOnUse" x1="16.7083" y1="42.9665" x2="78.1233" y2="42.9665">
			<stop  offset="0" style="stop-color:#FFFFFF"/>
			<stop  offset="1" style="stop-color:#000000"/>
		</linearGradient>
		<path class="st1" d="M16.88,52.34C21.44,62.09,32.92,69,46.35,69c13.43,0,24.91-6.91,29.47-16.66c1.36-2.91,2.11-6.07,2.11-9.37
			c0-14.38-14.14-26.03-31.58-26.03"/>
	</g>
	<g>
		<linearGradient id="SVGID_3_" gradientUnits="userSpaceOnUse" x1="18.4411" y1="42.9665" x2="76.3893" y2="42.9665">
			<stop  offset="0" style="stop-color:#FFFFFF"/>
			<stop  offset="1" style="stop-color:#000000"/>
		</linearGradient>
		<path class="st2" d="M18.61,52.25c4.31,9.65,15.13,16.49,27.81,16.49c12.67,0,23.5-6.84,27.81-16.49
			c1.29-2.88,1.99-6.01,1.99-9.28c0-14.24-13.34-25.78-29.79-25.78"/>
	</g>
	<g>
		<linearGradient id="SVGID_4_" gradientUnits="userSpaceOnUse" x1="20.076" y1="42.9665" x2="74.7534" y2="42.9665">
			<stop  offset="0" style="stop-color:#FFFFFF"/>
			<stop  offset="1" style="stop-color:#000000"/>
		</linearGradient>
		<path class="st3" d="M20.24,52.16c4.06,9.55,14.28,16.33,26.23,16.33c11.96,0,22.17-6.78,26.23-16.33
			c1.21-2.85,1.88-5.95,1.88-9.19c0-14.09-12.58-25.52-28.11-25.52"/>
	</g>
	<g>
		<linearGradient id="SVGID_5_" gradientUnits="userSpaceOnUse" x1="21.6186" y1="42.9665" x2="73.2099" y2="42.9665">
			<stop  offset="0" style="stop-color:#FFFFFF"/>
			<stop  offset="1" style="stop-color:#000000"/>
		</linearGradient>
		<path class="st4" d="M21.78,52.06c3.83,9.46,13.47,16.17,24.75,16.17c11.28,0,20.91-6.71,24.75-16.17
			c1.14-2.82,1.77-5.89,1.77-9.1c0-13.95-11.87-25.27-26.52-25.27"/>
	</g>
	<g>
		<linearGradient id="SVGID_6_" gradientUnits="userSpaceOnUse" x1="23.0741" y1="42.9665" x2="71.7536" y2="42.9665">
			<stop  offset="0" style="stop-color:#FFFFFF"/>
			<stop  offset="1" style="stop-color:#000000"/>
		</linearGradient>
		<path class="st5" d="M23.23,51.97c3.62,9.37,12.71,16.01,23.35,16.01c10.64,0,19.73-6.64,23.35-16.01
			c1.08-2.79,1.67-5.83,1.67-9.01c0-13.82-11.2-25.02-25.02-25.02"/>
	</g>
</g>
<g>
	<g>
		<linearGradient id="SVGID_7_" gradientUnits="userSpaceOnUse" x1="13.1854" y1="60.9828" x2="78.2746" y2="60.9828">
			<stop  offset="0" style="stop-color:#FFFFFF"/>
			<stop  offset="1" style="stop-color:#000000"/>
		</linearGradient>
		<path class="st6" d="M78.1,51.52c-4.84-9.84-17-16.83-31.24-16.83c-14.24,0-26.4,6.98-31.24,16.83c-1.44,2.94-2.24,6.13-2.24,9.47
			c0,14.52,14.99,26.29,33.48,26.29"/>
	</g>
	<g>
		<linearGradient id="SVGID_8_" gradientUnits="userSpaceOnUse" x1="15.0232" y1="60.9828" x2="76.4381" y2="60.9828">
			<stop  offset="0" style="stop-color:#FFFFFF"/>
			<stop  offset="1" style="stop-color:#000000"/>
		</linearGradient>
		<path class="st7" d="M76.27,51.61C71.7,41.86,60.23,34.95,46.8,34.95c-13.44,0-24.91,6.91-29.48,16.66
			c-1.36,2.91-2.11,6.07-2.11,9.37c0,14.38,14.14,26.03,31.58,26.03"/>
	</g>
	<g>
		<linearGradient id="SVGID_9_" gradientUnits="userSpaceOnUse" x1="16.7572" y1="60.9828" x2="74.7053" y2="60.9828">
			<stop  offset="0" style="stop-color:#FFFFFF"/>
			<stop  offset="1" style="stop-color:#000000"/>
		</linearGradient>
		<path class="st8" d="M74.54,51.7c-4.31-9.65-15.13-16.49-27.81-16.49c-12.68,0-23.5,6.85-27.81,16.49
			c-1.28,2.88-1.99,6.01-1.99,9.28c0,14.24,13.34,25.77,29.8,25.77"/>
	</g>
	<g>
		<linearGradient id="SVGID_10_" gradientUnits="userSpaceOnUse" x1="18.3931" y1="60.9828" x2="73.0704" y2="60.9828">
			<stop  offset="0" style="stop-color:#FFFFFF"/>
			<stop  offset="1" style="stop-color:#000000"/>
		</linearGradient>
		<path class="st9" d="M72.91,51.79c-4.06-9.55-14.28-16.33-26.23-16.33c-11.96,0-22.17,6.78-26.23,16.33
			c-1.21,2.85-1.88,5.95-1.88,9.19c0,14.09,12.58,25.52,28.11,25.52"/>
	</g>
	<g>
		<linearGradient id="SVGID_11_" gradientUnits="userSpaceOnUse" x1="19.9366" y1="60.9828" x2="71.5278" y2="60.9828">
			<stop  offset="0" style="stop-color:#FFFFFF"/>
			<stop  offset="1" style="stop-color:#000000"/>
		</linearGradient>
		<path class="st10" d="M71.37,51.88c-3.83-9.46-13.47-16.17-24.75-16.17c-11.28,0-20.92,6.71-24.75,16.17
			c-1.14,2.82-1.77,5.89-1.77,9.1c0,13.95,11.87,25.27,26.52,25.27"/>
	</g>
	<g>
		<linearGradient id="SVGID_12_" gradientUnits="userSpaceOnUse" x1="21.3928" y1="60.9828" x2="70.0723" y2="60.9828">
			<stop  offset="0" style="stop-color:#FFFFFF"/>
			<stop  offset="1" style="stop-color:#000000"/>
		</linearGradient>
		<path class="st11" d="M69.92,51.97c-3.62-9.36-12.71-16.01-23.35-16.01c-10.64,0-19.73,6.64-23.35,16.01
			c-1.08,2.79-1.67,5.83-1.67,9.01C21.56,74.8,32.76,86,46.57,86"/>
	</g>
</g>
<g>
	<g>
		<linearGradient id="SVGID_13_" gradientUnits="userSpaceOnUse" x1="46.3806" y1="51.9746" x2="46.7677" y2="51.9746">
			<stop  offset="0" style="stop-color:#FFFFFF"/>
			<stop  offset="1" style="stop-color:#000000"/>
		</linearGradient>
		<polyline class="st12" points="46.57,16.21 46.57,35.15 46.57,68.8 46.57,87.74 		"/>
	</g>
	<g>
		<linearGradient id="SVGID_14_" gradientUnits="userSpaceOnUse" x1="46.3871" y1="51.9746" x2="46.7612" y2="51.9746">
			<stop  offset="0" style="stop-color:#FFFFFF"/>
			<stop  offset="1" style="stop-color:#000000"/>
		</linearGradient>
		<polyline class="st13" points="46.57,16.57 46.57,35.32 46.57,68.63 46.57,87.38 		"/>
	</g>
	<g>
		<linearGradient id="SVGID_15_" gradientUnits="userSpaceOnUse" x1="46.3934" y1="51.9746" x2="46.755" y2="51.9746">
			<stop  offset="0" style="stop-color:#FFFFFF"/>
			<stop  offset="1" style="stop-color:#000000"/>
		</linearGradient>
		<polyline class="st14" points="46.57,16.92 46.57,35.48 46.57,68.47 46.57,87.03 		"/>
	</g>
	<g>
		<linearGradient id="SVGID_16_" gradientUnits="userSpaceOnUse" x1="46.3994" y1="51.9746" x2="46.7489" y2="51.9746">
			<stop  offset="0" style="stop-color:#FFFFFF"/>
			<stop  offset="1" style="stop-color:#000000"/>
		</linearGradient>
		<polyline class="st15" points="46.57,17.27 46.57,35.64 46.57,68.31 46.57,86.68 		"/>
	</g>
	<g>
		<linearGradient id="SVGID_17_" gradientUnits="userSpaceOnUse" x1="46.4053" y1="51.9746" x2="46.743" y2="51.9746">
			<stop  offset="0" style="stop-color:#FFFFFF"/>
			<stop  offset="1" style="stop-color:#000000"/>
		</linearGradient>
		<polyline class="st16" points="46.57,17.61 46.57,35.81 46.57,68.14 46.57,86.34 		"/>
	</g>
	<g>
		<linearGradient id="SVGID_18_" gradientUnits="userSpaceOnUse" x1="46.4109" y1="51.9746" x2="46.7374" y2="51.9746">
			<stop  offset="0" style="stop-color:#FFFFFF"/>
			<stop  offset="1" style="stop-color:#000000"/>
		</linearGradient>
		<polyline class="st17" points="46.57,17.95 46.57,35.97 46.57,67.98 46.57,86 		"/>
	</g>
</g>
</svg>
